<?xml version="1.0" encoding="UTF-8" standalone="no"?>
<!DOCTYPE svg PUBLIC "-//W3C//DTD SVG 1.0//EN" "http://www.w3.org/TR/2001/REC-SVG-20010904/DTD/svg10.dtd">
<!-- Создано Microsoft Visio 11.0, Экспорт SVG, версия 1.0 deathrattle.svg Страница-1 -->
<svg xmlns="http://www.w3.org/2000/svg" xmlns:xlink="http://www.w3.org/1999/xlink" xmlns:ev="http://www.w3.org/2001/xml-events"
		xmlns:v="http://schemas.microsoft.com/visio/2003/SVGExtensions/" width="1.06759in" height="1.06759in"
		viewBox="0 0 76.8661 76.8661" xml:space="preserve" color-interpolation-filters="sRGB" class="st3">
	<v:documentProperties v:langID="1049" v:metric="true" v:viewMarkup="false"/>

	<style type="text/css">
	<![CDATA[
		.st1 {fill:#ffffff;stroke:#000000;stroke-linecap:round;stroke-linejoin:round;stroke-width:3}
		.st2 {fill:#000000;stroke:#000000;stroke-linecap:round;stroke-linejoin:round;stroke-width:0.24}
		.st3 {fill:none;fill-rule:evenodd;font-size:12px;overflow:visible;stroke-linecap:square;stroke-miterlimit:3}
	]]>
	</style>

	<g v:mID="0" v:index="1" v:groupContext="foregroundPage">
		<title>Страница-1</title>
		<v:pageProperties v:drawingScale="0.0393701" v:pageScale="0.0393701" v:drawingUnits="24" v:shadowOffsetX="8.50394"
				v:shadowOffsetY="-8.50394"/>
		<g id="shape1-1" v:mID="1" v:groupContext="shape" transform="translate(3,-3)">
			<title>Круг.3</title>
			<v:userDefs>
				<v:ud v:nameU="visVersion" v:val="VT0(14):26"/>
			</v:userDefs>
			<path d="M0 41.43 A35.4331 35.4331 0 0 1 70.87 41.43 A35.4331 35.4331 0 1 1 -0 41.43 Z" class="st1"/>
		</g>
		<g id="shape2-3" v:mID="2" v:groupContext="shape" transform="translate(19.3462,-17.3288)">
			<title>Лист.2</title>
			<path d="M22.83 56.87 L22.83 56.85 A8.1606 6.99813 -179.76 0 0 22.81 56.74 L22.8 56.71 A8.1606 6.99813 -179.76 0 0 22.65
						 56.12 A8.1606 6.99813 -179.76 0 0 19.95 52.54 A8.09818 4.68908 169.36 0 1 34.47 49.37 A10.7728 6.1131 -10.77
						 0 0 31.53 50.87 A10.7728 6.1131 -10.77 0 0 29.38 52.76 A10.7728 6.1131 -10.77 0 0 29.01 53.25 A10.7728 6.1131
						 -10.77 0 0 28.13 55.67 A10.7728 6.1131 -10.77 0 0 28.29 56.88 A10.7728 6.1131 -10.77 0 0 28.48 57.37 A8.09818
						 4.68908 169.36 0 1 27.41 57.52 A8.09818 4.68908 169.36 0 1 25.52 57.58 A8.09818 4.68908 169.36 0 1 24.14
						 57.43 A8.09818 4.68908 169.36 0 1 22.87 57.12 A8.1606 6.99813 -179.76 0 0 22.85 56.99 A8.1606 6.99813 -179.76
						 0 0 22.83 56.87 ZM22.47 62.66 L19.55 62.66 L19.55 58.19 L22.47 62.66 ZM18.43 58.19 L18.43 62.66 L15.51 62.66
						 L18.43 58.19 ZM9.81 56.88 A10.7728 6.1131 -169.23 0 0 3.62 49.37 A8.09818 4.68908 10.64 0 1 18.14 52.54
						 A8.1606 6.99813 -0.24 0 0 15.45 56.12 A8.1606 6.99813 -0.24 0 0 15.22 57.12 A8.09818 4.68908 10.64 0 1 9.61
						 57.37 A10.7728 6.1131 -169.23 0 0 9.81 56.88 ZM22.83 76.57 A18.5108 20.9764 -180 0 0 24.31 76.21 A18.5108
						 20.9764 0 0 1 29.14 65.44 A12.9108 14.6305 -180 0 0 35.67 60.44 A12.9108 14.6305 -180 0 0 38.17 54.3 A18.5108
						 20.9764 -180 0 0 38.15 54 A18.5108 20.9764 -180 0 0 19.09 34.93 A18.5108 20.9764 -180 0 0 0.02 54 A18.5108
						 20.9764 -180 0 0 0 54.3 A12.9108 14.6305 -180 0 0 2.5 60.44 A12.9108 14.6305 -180 0 0 9.04 65.44 A18.5108
						 20.9764 0 0 1 13.86 76.21 A18.5108 20.9764 -180 0 0 15.49 76.6 A6.41118 3.64999 -79.15 0 0 15.47 74.71 A6.41118
						 3.64999 -79.15 0 0 15.4 74.22 A4.89606 2.75593 100.04 0 1 17.39 74.48 A6.99815 2.89975 -90.04 0 0 17.47
						 75.47 A6.99815 2.89975 -90.04 0 0 17.69 76.85 A18.5108 20.9764 -180 0 0 19.09 76.85 A18.5108 20.9764 -180
						 0 0 19.64 76.87 A6.99815 2.89975 -89.96 0 0 20.51 73.46 A6.99815 2.89975 -89.96 0 0 20.59 72.47 A4.89606
						 2.75593 79.96 0 1 22.58 72.21 A6.41118 3.64999 -100.85 0 0 22.51 72.7 A6.41118 3.64999 -100.85 0 0 22.83
						 76.57 Z" class="st2"/>
		</g>
	</g>
</svg>
