<?xml version="1.0" encoding="UTF-8" standalone="no"?>
<!DOCTYPE svg PUBLIC "-//W3C//DTD SVG 1.0//EN" "http://www.w3.org/TR/2001/REC-SVG-20010904/DTD/svg10.dtd">
<!-- Создано Microsoft Visio 11.0, Экспорт SVG, версия 1.0 nighthaunt.svg Страница-1 -->
<svg xmlns="http://www.w3.org/2000/svg" xmlns:xlink="http://www.w3.org/1999/xlink" xmlns:ev="http://www.w3.org/2001/xml-events"
		xmlns:v="http://schemas.microsoft.com/visio/2003/SVGExtensions/" width="1.06759in" height="1.06759in"
		viewBox="0 0 76.8661 76.8661" xml:space="preserve" color-interpolation-filters="sRGB" class="st3">
	<v:documentProperties v:langID="1049" v:metric="true" v:viewMarkup="false"/>

	<style type="text/css">
	<![CDATA[
		.st1 {fill:#ffffff;stroke:#000000;stroke-linecap:round;stroke-linejoin:round;stroke-width:3}
		.st2 {fill:#000000;stroke:#000000;stroke-linecap:round;stroke-linejoin:round;stroke-width:0.24}
		.st3 {fill:none;fill-rule:evenodd;font-size:12px;overflow:visible;stroke-linecap:square;stroke-miterlimit:3}
	]]>
	</style>

	<g v:mID="0" v:index="1" v:groupContext="foregroundPage">
		<title>Страница-1</title>
		<v:pageProperties v:drawingScale="0.0393701" v:pageScale="0.0393701" v:drawingUnits="24" v:shadowOffsetX="8.50394"
				v:shadowOffsetY="-8.50394"/>
		<g id="shape1-1" v:mID="1" v:groupContext="shape" transform="translate(3,-3)">
			<title>Круг.2</title>
			<v:userDefs>
				<v:ud v:nameU="visVersion" v:val="VT0(14):26"/>
			</v:userDefs>
			<path d="M0 41.43 A35.4331 35.4331 0 0 1 70.87 41.43 A35.4331 35.4331 0 1 1 -0 41.43 Z" class="st1"/>
		</g>
		<g id="shape2-3" v:mID="2" v:groupContext="shape" transform="translate(16.6376,-4.37033) rotate(-10)">
			<title>Лист.2</title>
			<path d="M19.63 28.22 C18.37 28.69 18.08 29.19 18.27 29.82 C8.69 33.14 -0.79 37.6 0.05 50.28 C6.15 36 16.86 36.12 21.43
						 35.99 C21.47 36.21 21.5 36.45 21.52 36.69 C22.2 44.9 11.09 61.73 30.82 76.87 L34.23 75.19 C13.82 63.13 23.32
						 47.82 23.53 39.31 C23.56 38.03 23.38 36.91 23.07 35.85 C23.3 35.8 23.46 35.72 23.54 35.61 C23.94 35.02 22.14
						 33.45 20.54 29.05 C20.38 29.11 20.22 29.16 20.06 29.22 C19.91 28.89 19.77 28.56 19.63 28.22 Z" class="st2"/>
		</g>
	</g>
</svg>
